<?xml version="1.0" encoding="iso-8859-1"?>
<!-- Generator: Adobe Illustrator 21.1.0, SVG Export Plug-In . SVG Version: 6.00 Build 0)  -->
<svg version="1.1" id="Layer_1" xmlns="http://www.w3.org/2000/svg" xmlns:xlink="http://www.w3.org/1999/xlink" x="0px" y="0px"
	 viewBox="0 0 215 215" style="enable-background:new 0 0 215 215;" xml:space="preserve">
<g>
	<g>
		<g>
			<path style="fill:#BD1622;" d="M110.088,52.556v71.03c0,12.818,5.565,18.79,17.516,18.79h33.985
				c6.916-9.729,10.567-21.108,10.567-32.955c0-31.501-25.618-57.119-57.11-57.119C113.511,52.302,111.91,52.384,110.088,52.556z"/>
		</g>
		<g>
			<path style="fill:#BD1622;" d="M60.513,126.175c7.303,23.828,29.537,40.357,54.532,40.357c7.605,0,15.168-1.54,22.17-4.502
				h-11.582c-20.724,0-35.197-14.71-35.197-35.769V58c-4.671,2.22-8.938,4.99-12.72,8.246c5.038,6.681,7.69,14.784,7.69,23.525
				C85.406,106.103,75.458,120.559,60.513,126.175z"/>
		</g>
	</g>
	<path style="fill:#BD1622;" d="M114.895,33.492c-21.641,0-42.329,9.331-56.761,25.598l-1.189,1.339l-1.72-0.496
		c-2.871-0.823-5.807-1.245-8.726-1.245c-17.359,0-30.957,13.653-30.957,31.083c0,14.173,8.999,26.2,22.397,29.924
		c2.795,0.827,5.603,1.241,8.399,1.241c3.868,0,7.763-0.75,11.9-2.294l0.478-0.176c11.49-4.748,18.882-15.951,18.882-28.695
		c0-8.41-3.118-16.193-8.77-21.903l-1.975-1.995l1.969-1.995c12.145-12.318,28.993-19.384,46.225-19.384
		c35.799,0,64.924,29.125,64.924,64.927c0,35.798-29.125,64.919-64.924,64.919c-14.332,0-27.899-4.563-39.229-13.202
		c-10.592-8.07-18.291-18.974-22.39-31.661l-0.494-1.7c-2.548,0.602-8.493,0.766-11.744-0.049l0.675,2.171
		c4.246,15.099,13.194,28.691,25.51,38.62c13.463,10.847,30.337,16.823,47.522,16.823c41.868,0,75.926-34.057,75.926-75.921
		C190.821,67.549,156.762,33.492,114.895,33.492z M46.498,110.994c-11.646,0-20.098-8.926-20.098-21.223
		c0-12.301,8.452-21.227,20.098-21.227c11.642,0,20.089,8.926,20.089,21.227C66.587,102.068,58.14,110.994,46.498,110.994z"/>
</g>
<g>
</g>
<g>
</g>
<g>
</g>
<g>
</g>
<g>
</g>
<g>
</g>
</svg>
